<svg xmlns="http://www.w3.org/2000/svg" width="125.72" height="20.574" viewBox="0 0 125.72 20.574">
  <path id="logo_gerako" d="M15.823-4.848A7.308,7.308,0,0,1,12.242-4a6.14,6.14,0,0,1-6.451-6.366A6.124,6.124,0,0,1,12.3-16.726a6.732,6.732,0,0,1,5.144,2.245L20.4-17.209a10.6,10.6,0,0,0-8.326-3.439c-6.337,0-10.941,4.291-10.941,10.287S5.735-.074,11.987-.074A13.727,13.727,0,0,0,20.029-2.6v-8.071H15.823Zm13.044.739v-4.6H38.1v-3.581H28.867v-4.319H39.324v-3.694H24.291V-.415h15.4V-4.109ZM60.979-.415,56.517-6.809a6.467,6.467,0,0,0,4.092-6.28c0-4.462-3.325-7.218-8.639-7.218H43.36V-.415h4.6V-5.956H52.2L56.034-.415Zm-5.03-12.674c0,2.16-1.421,3.467-4.234,3.467H47.963v-6.934h3.751C54.528-16.556,55.949-15.277,55.949-13.089ZM79.109-.415H83.94L75.045-20.307H70.5L61.632-.415H66.35l1.762-4.263h9.236Zm-9.52-7.758,3.154-7.616L75.9-8.173ZM99.627-.415H105L96.274-11.441l8.241-8.866H99.4L90.59-11.014v-9.293H86.015V-.415H90.59v-5.03l2.671-2.785Zm16.34.341c6.252,0,10.884-4.348,10.884-10.287s-4.632-10.287-10.884-10.287c-6.28,0-10.884,4.376-10.884,10.287S109.687-.074,115.967-.074Zm0-3.922a6.068,6.068,0,0,1-6.223-6.366,6.068,6.068,0,0,1,6.223-6.366,6.068,6.068,0,0,1,6.223,6.366A6.068,6.068,0,0,1,115.967-4Z" transform="translate(-1.131 20.648)" fill="#fff"/>
</svg>
