<svg id="Layer_1" data-name="Layer 1" xmlns="http://www.w3.org/2000/svg" viewBox="0 0 243.72 180.23"><defs><style>.cls-1{isolation:isolate;}.cls-2,.cls-3{fill:#3498db;}.cls-3{fill-rule:evenodd;}</style></defs><g id="Logo"><g id="GERAKO" class="cls-1"><g class="cls-1"><path class="cls-2" d="M7102.9,7269.07h8.15v15.64a26.57,26.57,0,0,1-15.59,4.9c-12.12,0-21.05-8.31-21.05-19.94s8.93-19.94,21.21-19.94c6.78,0,12.4,2.31,16.14,6.67l-5.73,5.28a13,13,0,0,0-10-4.35c-7.49,0-12.61,5-12.61,12.34s5.12,12.34,12.5,12.34a14.21,14.21,0,0,0,6.95-1.65Z" transform="translate(-7074.41 -7109.39)"/><path class="cls-2" d="M7149.17,7281.79V7289h-29.86v-38.56h29.15v7.16h-20.28v8.38h17.91v6.94h-17.91v8.92Z" transform="translate(-7074.41 -7109.39)"/><path class="cls-2" d="M7180.85,7289l-7.44-10.74h-8.2V7289h-8.93v-38.56H7173c10.3,0,16.75,5.35,16.75,14a12.54,12.54,0,0,1-7.93,12.18l8.64,12.39Zm-8.37-31.29h-7.27v13.44h7.27c5.45,0,8.2-2.53,8.2-6.72S7177.93,7257.66,7172.48,7257.66Z" transform="translate(-7074.41 -7109.39)"/><path class="cls-2" d="M7222.17,7280.69h-17.9l-3.42,8.26h-9.14l17.18-38.56h8.82L7235,7289h-9.37Zm-2.81-6.78-6.12-14.76-6.11,14.76Z" transform="translate(-7074.41 -7109.39)"/><path class="cls-2" d="M7253,7273.8l-5.18,5.4V7289H7239v-38.56h8.87v18l17.08-18h9.92l-16,17.19,16.91,21.37h-10.41Z" transform="translate(-7074.41 -7109.39)"/><path class="cls-2" d="M7275.94,7269.67c0-11.46,8.93-19.94,21.1-19.94s21.1,8.43,21.1,19.94-9,19.94-21.1,19.94S7275.94,7281.13,7275.94,7269.67Zm33.16,0c0-7.32-5.17-12.34-12.06-12.34s-12.06,5-12.06,12.34S7290.15,7282,7297,7282,7309.1,7277,7309.1,7269.67Z" transform="translate(-7074.41 -7109.39)"/></g></g><g id="_1616948310208" data-name=" 1616948310208"><path id="Path_2488" data-name="Path 2488" class="cls-3" d="M7238.14,7173.37l-3.16,1.05-24.77-32.2,6.36-4.79,21.57,35.93Zm-72.34-64,15.56,8.35a5.21,5.21,0,0,1,2.59,6l-2.28,7.71-15.89-9.52-5.51-3.31,5.52-9.2Zm-16.39,26.41,1.42-2.21,9.11,6.77a15.86,15.86,0,0,1,6.17,15l-.35,8L7141,7149.05l8.38-13.26Zm117.8,80.62h-40.58l-96.88-53.7,5.59-10.51,91.73,52.78a2.92,2.92,0,0,0,1.39.37h49.83a11.07,11.07,0,0,1-11.07,11.07Zm11.07-16.6h-49.1l-58-33.41.45-10.63a21.23,21.23,0,0,0-8.38-19.87l-9.43-7,3.57-5.6,24.51,14.7a2.7,2.7,0,0,0,1.07.35l.19,0h.17a2.85,2.85,0,0,0,1-.18l28-10.82a1.71,1.71,0,0,1,1.55.18,1.65,1.65,0,0,1,.72,1.38V7132l-10,7.47a2.78,2.78,0,0,0-.55,3.88v0l27.7,36a2.75,2.75,0,0,0,3.06.94l7.78-2.59,24.87,1.77a11.65,11.65,0,0,1,10.78,11.55v8.79Z" transform="translate(-7074.41 -7109.39)"/><path id="Path_2489" data-name="Path 2489" class="cls-3" d="M7139.86,7183.21H7126a2.77,2.77,0,0,0,0,5.54h13.83a2.77,2.77,0,1,0,.14-5.54Z" transform="translate(-7074.41 -7109.39)"/><path id="Path_2490" data-name="Path 2490" class="cls-3" d="M7123.26,7202.59a2.77,2.77,0,0,0,2.77,2.77h36a2.77,2.77,0,0,0,0-5.54h-36A2.77,2.77,0,0,0,7123.26,7202.59Z" transform="translate(-7074.41 -7109.39)"/><path id="Path_2491" data-name="Path 2491" class="cls-3" d="M7192.47,7216.43H7126a2.77,2.77,0,0,0,0,5.54h66.44a2.77,2.77,0,0,0,0-5.54Z" transform="translate(-7074.41 -7109.39)"/></g></g></svg>