<svg xmlns="http://www.w3.org/2000/svg" width="235" height="182.434" viewBox="0 0 235 182.434">
  <g id="logo_full" transform="translate(-133.91 -134.636)">
    <text id="GERAKO" transform="translate(133.91 304.069)" fill="#fff" font-size="52" font-family="Montserrat-Bold, Montserrat" font-weight="700"><tspan x="0" y="0">GERAKO</tspan></text>
    <g id="_1616948310208" transform="translate(182.207 134.636)">
      <path id="Path_2488" data-name="Path 2488" d="M255.289,60.606l-3,1L228.833,31.1l6.029-4.531L255.289,60.6ZM186.77,0l14.741,7.912a4.937,4.937,0,0,1,2.458,5.658l-2.167,7.3-15.053-9.025-5.214-3.127L186.763,0ZM171.244,25.024l1.345-2.094,8.625,6.414A15.014,15.014,0,0,1,187.061,43.5l-.327,7.578L163.3,37.575l7.941-12.552Zm111.577,76.365H244.388L152.62,50.52l5.3-9.963,86.881,50a2.678,2.678,0,0,0,1.316.349h47.2a10.49,10.49,0,0,1-10.487,10.487Zm10.487-15.73h-46.5c-20.529-11.825-32.543-18.733-54.956-31.641l.422-10.065a20.134,20.134,0,0,0-7.934-18.828l-8.93-6.64,3.374-5.3L202,27.111a2.5,2.5,0,0,0,1.018.327c.058,0,.116.022.182.029a1.332,1.332,0,0,0,.153.015,2.663,2.663,0,0,0,.953-.175l26.558-10.247a1.6,1.6,0,0,1,1.462.167,1.554,1.554,0,0,1,.684,1.309v2.887L223.568,28.5a2.63,2.63,0,0,0-.524,3.672c.007.007.007.015.015.022l26.224,34.085a2.6,2.6,0,0,0,2.9.887l7.374-2.458,23.562,1.68a11.028,11.028,0,0,1,10.2,10.937v8.319Z" transform="translate(-146.475)" fill="#fff" fill-rule="evenodd"/>
      <path id="Path_2489" data-name="Path 2489" d="M159.9,96.15H146.8a2.625,2.625,0,0,0,0,5.251h13.1a2.625,2.625,0,1,0,0-5.251ZM159.9,96.15Z" transform="translate(-144.17 -26.228)" fill="#fff" fill-rule="evenodd"/>
      <path id="Path_2490" data-name="Path 2490" d="M144.17,120.405a2.624,2.624,0,0,0,2.625,2.625H180.88a2.625,2.625,0,0,0,0-5.251H146.8A2.629,2.629,0,0,0,144.17,120.405ZM144.17,120.405Z" transform="translate(-144.17 -32.128)" fill="#fff" fill-rule="evenodd"/>
      <path id="Path_2491" data-name="Path 2491" d="M209.722,139.42H146.8a2.625,2.625,0,0,0,0,5.251h62.926a2.625,2.625,0,0,0,0-5.251ZM209.722,139.42Z" transform="translate(-144.17 -38.031)" fill="#fff" fill-rule="evenodd"/>
    </g>
  </g>
</svg>
